Fringe S3E17 WEB-DL DD5.1 NL Subs

Verenigde Staten / Canada ~ 60 minuten ~ geschreven door J.J. Abrams, Alex Kurtzman & Roberto Orci ~ met Anna Torv, Joshua Jackson, Peter Bishop, Lance Reddick, Blair Brown, Jasika Nicole & John Noble.

We gaan verder met het verkennen van een mysterieuze mythologie die miljoenen kijkers in zijn hypnotische greep houdt. Dit tweede seizoen van Fringe bestaat uit 4 dvd's met in totaal 22 afleveringen. Het bevat verschillende werelden boordevol spanning, gedaanteverwisselaars, ingevroren hoofden, wezens die zich in je buik nestelen en mensen die voor je ogen in as veranderen. De overkoepelende verhaallijn volgt drie geheime FBI-agenten tijdens een verbazingwekkend onderzoek naar een parallelle wereld die onze wereld dreigt te vernietigen.

Bestandsformaat: .MKV
Bestandsgrootte: 1,38 GB
Taal: Engels in DD5.1
Ondertitelingen: Nederlands ~ custom door TheThom (in te stellen)
Categorie : Serie
Formaat : NVT
Bron : WEB-DL
Menu: Nee
Extra's: Nee
Genre : Mysterie ~ Drama ~ Horror
Weblink : http://www.imdb.com/title/tt1119644/

~~~~~~~~~~~~~~~~~~~~~~
USA / Canada ~ 60 minutes ~ written by J.J. Abrams, Alex Kurtzman & Roberto Orci ~ with Anna Torv, Joshua Jackson, Peter Bishop, Lance Reddick, Blair Brown, Jasika Nicole & John Noble.

The FBI teams up with a formerly-institutionalized scientist - who was performing experiments on the fringe of real science - and his son to investigate weird crimes that are seemingly part of a larger pattern, and may be connected with a global company called Massive Dynamics.

File Format: .MKV
File size: 1.38 GB
Language: English in DD5.1
Subtitles: Dutch ~ custom (selectable)
Category : Series
Format : -
Source : WEB-DL
Menu: No
Extras: No
Genre : Drama ~ Mystery ~ Horror
Weblink : http://www.imdb.com/title/tt1119644/

Video and audio information:
~~~~~~~~~~~~~~~~~~~~~~
Video
ID                               : 1
Format                           : AVC
Format/Info                      : Advanced Video Codec
Format profile                   : High@L3.1
Format settings, CABAC           : No
Format settings, ReFrames        : 2 frames
Format settings, GOP             : M=2, N=25
Codec ID                         : V_MPEG4/ISO/AVC
Duration                         : 43mn 55s
Bit rate                         : 4 045 Kbps
Width                            : 1 280 pixels
Height                           : 720 pixels
Display aspect ratio             : 16:9
Frame rate                       : 23.976 fps
Color space                      : YUV
Chroma subsampling               : 4:2:0
Bit depth                        : 8 bits
Scan type                        : Progressive
Bits/(Pixel*Frame)               : 0.183
Stream size                      : 1.24 GiB (90%)
Title                            : 720p WEB-DL H264
Language                         : English
Color primaries                  : BT.709-5, BT.1361, IEC 61966-2-4, SMPTE RP177
Transfer characteristics         : BT.709-5, BT.1361
Matrix coefficients              : BT.709-5, BT.1361, IEC 61966-2-4 709, SMPTE RP177

Audio
ID                               : 2
Format                           : AC-3
Format/Info                      : Audio Coding 3
Mode extension                   : CM (complete main)
Codec ID                         : A_AC3
Duration                         : 43mn 55s
Bit rate mode                    : Constant
Bit rate                         : 384 Kbps
Channel(s)                       : 6 channels
Channel positions                : Front: L C R, Side: L R, LFE
Sampling rate                    : 48.0 KHz
Bit depth                        : 16 bits
Compression mode                 : Lossy
Stream size                      : 121 MiB (8%)
Title                            : DD5.1 @ 384 Kb/s
Language                         : English

~~~~~~~~~~~~~~~
Hornigold TBS
~~~~~~~~~~~~~~~